<svg width="21" height="20" viewBox="0 0 21 20" fill="none" xmlns="http://www.w3.org/2000/svg">
<path d="M0.926231 3.61136H17.9076C18.2517 3.61138 18.592 3.68946 18.9065 3.84057C19.221 3.99168 19.5028 4.21247 19.7336 4.4887C19.9645 4.76494 20.1394 5.09049 20.2469 5.44437C20.3545 5.79825 20.3924 6.17261 20.3582 6.54332L19.6193 14.5432C19.5585 15.2012 19.2741 15.8113 18.8213 16.255C18.3685 16.6987 17.7795 16.9445 17.1688 16.9445H5.40863C4.83906 16.9447 4.28702 16.7312 3.84649 16.3403C3.40597 15.9494 3.1042 15.4053 2.99257 14.8005L0.926231 3.61136Z" fill="#F8F8F8"/>
<path fill-rule="evenodd" clip-rule="evenodd" d="M0.760033 0.0573205C1.34218 -0.136732 1.97142 0.177883 2.16547 0.760033L3.36917 4.37109C3.56322 4.95324 3.24861 5.58248 2.66646 5.77653C2.08431 5.97058 1.45507 5.65597 1.26102 5.07382L0.0573205 1.46276C-0.136732 0.880609 0.177883 0.251373 0.760033 0.0573205ZM4.25951 18.8889C4.25951 18.2753 4.75697 17.7778 5.37061 17.7778H7.5928C8.20644 17.7778 8.70389 18.2753 8.70389 18.8889C8.70389 19.5025 8.20644 20 7.5928 20H5.37061C4.75697 20 4.25951 19.5025 4.25951 18.8889ZM13.1483 18.8889C13.1483 18.2753 13.6457 17.7778 14.2594 17.7778H16.4815C17.0952 17.7778 17.5926 18.2753 17.5926 18.8889C17.5926 19.5025 17.0952 20 16.4815 20H14.2594C13.6457 20 13.1483 19.5025 13.1483 18.8889Z" fill="#F8F8F8"/>
</svg>
