<svg width="200" height="40" viewBox="0 0 200 40" fill="none" xmlns="http://www.w3.org/2000/svg">
<path fill-rule="evenodd" clip-rule="evenodd" d="M0.291238 0.839817C0.838035 -0.00995296 1.97018 -0.25556 2.81995 0.291238L24.4708 14.2228C25.3206 14.7696 25.5662 15.9018 25.0194 16.7515C24.4726 17.6013 23.3404 17.8469 22.4907 17.3001L0.839817 3.36853C-0.00995274 2.82173 -0.25556 1.68959 0.291238 0.839817ZM21.0637 23.1785C21.3977 22.4502 22.4402 22.4728 22.7424 23.2148L28.6988 37.8363C28.9439 38.438 28.5012 39.0963 27.8515 39.0963H15.1889C14.5222 39.0963 14.0794 38.406 14.3574 37.8001L21.0637 23.1785ZM13.1897 37.8958C12.4203 39.5677 10.0268 39.5159 9.3305 37.8122L0.275645 15.6568C0.0296867 15.055 0.472347 14.3959 1.12248 14.3959H15.4353C19.4384 14.3959 22.0951 18.5428 20.4217 22.1794L13.1897 37.8958ZM22.631 18.5126C22.4293 19.459 22.5884 20.3607 23.0005 21.3546L29.7458 37.6229C30.5143 39.4764 33.1271 39.5123 33.9463 37.6804L43.7821 15.6841C44.0525 15.079 43.6099 14.3959 42.947 14.3959L26.2904 14.3959C26.5189 14.8533 26.5189 15.6401 26.5189 16.2255C26.2828 17.5978 25.3925 18.7413 24.0031 18.7413C23.5347 18.7413 23.0065 18.7355 22.631 18.5126ZM130.122 13.9384L125.319 16.4542C122.575 11.3312 119.449 14.3196 118.229 16.4542V23.3154C121.157 28.2555 124.175 25.3738 125.319 23.3154L130.122 26.5173C128.109 30.1767 125.471 31.0915 124.404 31.0915H119.144C114.936 30.1767 113.274 25.8312 112.969 23.7728V15.082C114.067 10.5078 117.543 8.44944 119.144 7.99203H124.404C127.698 9.27279 129.588 12.4899 130.122 13.9384ZM185.927 7.99203H193.474C196.676 9.13556 201.616 12.9321 195.761 18.97C199.969 19.3359 200.259 24.154 199.878 26.5173C199.496 27.6609 198.46 30.0852 197.362 30.6341C196.264 31.183 194.465 31.3202 193.703 31.3202H185.927V7.99203ZM61.0522 7.99205H66.5411V25.8312H72.945V31.3202H61.0522V7.99205ZM93.9861 31.3202V7.99203H99.4751L105.422 18.5126V7.99203H111.368V31.3202H105.879L99.4751 20.1135V31.3202H93.9861ZM131.952 7.99203H137.441V17.1403H143.387V7.99203H148.876V31.3202H143.387V22.1719H137.441V31.3202H131.952V7.99203ZM156.652 7.99203H151.163V31.3202H163.056V25.8312H156.652V7.99203ZM170.832 7.99203H177.693L185.012 31.3202H178.837L176.321 25.3738H172.204L170.146 31.3202H163.971L170.832 7.99203ZM80.4923 7.99203H74.7747V22.1719C74.7747 27.8896 77.7478 30.1767 80.4923 31.0915H86.21C89.6406 29.4905 91.9277 26.746 91.9277 22.1719V7.99203H86.21V22.6293C83.6485 28.1183 81.3309 24.9164 80.4923 22.6293V7.99203Z" fill="url(#paint0_linear_177_32)"/>
<defs>
<linearGradient id="paint0_linear_177_32" x1="-2.72325" y1="26.6917" x2="197.567" y2="23.4704" gradientUnits="userSpaceOnUse">
<stop stop-color="#E78E44"/>
<stop offset="0.864583" stop-color="#E66C46"/>
<stop offset="1" stop-color="#E64949"/>
</linearGradient>
</defs>
</svg>
