<svg width="79" height="71" viewBox="0 0 79 71" fill="none" xmlns="http://www.w3.org/2000/svg">
<path d="M5.0645 0.527273C3.53835 -0.462681 1.50507 -0.0180194 0.52305 1.52045C-0.458975 3.05892 -0.0178747 5.10862 1.50827 6.09857L40.3922 31.3211C41.9184 32.311 43.9517 31.8664 44.9337 30.3279C45.9157 28.7894 45.4746 26.7397 43.9485 25.7498L5.0645 0.527273Z" fill="url(#paint0_linear_223_107)"/>
<path d="M40.8444 42.0293C40.3015 40.6859 38.4293 40.6452 37.8294 41.9637L25.7852 68.4353C25.286 69.5325 26.0812 70.7821 27.2786 70.7821H50.0201C51.1869 70.7821 51.9819 69.5903 51.5417 68.501L40.8444 42.0293Z" fill="url(#paint1_linear_223_107)"/>
<path d="M23.6881 68.6087C22.3064 71.6356 18.0076 71.5418 16.7572 68.4574L0.495046 28.3459C0.0533159 27.2564 0.848314 26.0631 2.01592 26.0631H27.7211C34.9105 26.0631 39.6817 33.5709 36.6764 40.1548L23.6881 68.6087Z" fill="url(#paint2_linear_223_107)"/>
<path d="M41.3079 38.6615C40.5678 36.8621 40.2821 35.2297 40.6443 33.5163C41.3186 33.9198 42.2673 33.9303 43.1085 33.9303C45.6039 33.9303 47.2027 31.86 47.6267 29.3756C47.6267 28.3158 47.6267 26.8912 47.2163 26.0632L77.1308 26.0631C78.3213 26.0631 79.1164 27.2998 78.6306 28.3954L60.966 68.2187C59.4947 71.5352 54.8024 71.4703 53.4221 68.1145L41.3079 38.6615Z" fill="url(#paint3_linear_223_107)"/>
<defs>
<linearGradient id="paint0_linear_223_107" x1="-1.07263" y1="48.3242" x2="77.8367" y2="48.0481" gradientUnits="userSpaceOnUse">
<stop stop-color="#E78E44"/>
<stop offset="0.864583" stop-color="#E66C46"/>
<stop offset="1" stop-color="#E64949"/>
</linearGradient>
<linearGradient id="paint1_linear_223_107" x1="-1.07263" y1="48.3242" x2="77.8367" y2="48.0481" gradientUnits="userSpaceOnUse">
<stop stop-color="#E78E44"/>
<stop offset="0.864583" stop-color="#E66C46"/>
<stop offset="1" stop-color="#E64949"/>
</linearGradient>
<linearGradient id="paint2_linear_223_107" x1="-1.07263" y1="48.3242" x2="77.8367" y2="48.0481" gradientUnits="userSpaceOnUse">
<stop stop-color="#E78E44"/>
<stop offset="0.864583" stop-color="#E66C46"/>
<stop offset="1" stop-color="#E64949"/>
</linearGradient>
<linearGradient id="paint3_linear_223_107" x1="-1.07263" y1="48.3242" x2="77.8367" y2="48.0481" gradientUnits="userSpaceOnUse">
<stop stop-color="#E78E44"/>
<stop offset="0.864583" stop-color="#E66C46"/>
<stop offset="1" stop-color="#E64949"/>
</linearGradient>
</defs>
</svg>
