<svg width="21" height="23" viewBox="0 0 21 23" fill="none" xmlns="http://www.w3.org/2000/svg">
<path fill-rule="evenodd" clip-rule="evenodd" d="M2.3 5.75H3.45H18.4V20.7C18.4 21.31 18.1577 21.895 17.7263 22.3263C17.295 22.7577 16.71 23 16.1 23H4.6C3.99 23 3.40499 22.7577 2.97365 22.3263C2.54232 21.895 2.3 21.31 2.3 20.7V5.75ZM13.8 0L15.6607 2.3H20.7V4.6H0V2.3H5.0393L6.9 0H13.8ZM15.525 9.2H13.8V18.975H15.525V9.2ZM9.4875 9.2H11.2125V18.975H9.4875V9.2ZM6.9 9.2H5.175V18.975H6.9V9.2Z" fill="white"/>
</svg>
