<svg width="24" height="23" viewBox="0 0 24 23" fill="none" xmlns="http://www.w3.org/2000/svg">
<path d="M1.39572 15.324L0.0340749 21.2006C-0.0128974 21.4154 -0.0112872 21.638 0.0387879 21.8521C0.088863 22.0663 0.186138 22.2665 0.323507 22.4382C0.460875 22.6099 0.634868 22.7488 0.832773 22.8446C1.03068 22.9405 1.2475 22.9909 1.46739 22.9922C1.56985 23.0026 1.67309 23.0026 1.77555 22.9922L7.68798 21.6306L19.0398 10.3217L12.7046 4.00081L1.39572 15.324Z" fill="white"/>
<path d="M22.6088 4.66013L18.3805 0.431849C18.1025 0.155265 17.7263 0 17.3342 0C16.9421 0 16.5659 0.155265 16.2879 0.431849L13.9372 2.78249L20.2653 9.11058L22.616 6.75994C22.7535 6.62168 22.8625 6.45765 22.9366 6.27724C23.0107 6.09683 23.0485 5.90358 23.0478 5.70855C23.0471 5.51351 23.008 5.32053 22.9327 5.14063C22.8574 4.96073 22.7473 4.79745 22.6088 4.66013Z" fill="white"/>
</svg>
