<svg width="26" height="23" viewBox="0 0 26 23" fill="none" xmlns="http://www.w3.org/2000/svg">
<path d="M12.7713 22.9898C11.9476 22.2593 11.0165 21.4994 10.0319 20.6909H10.0191C6.55169 17.8557 2.62196 14.6476 0.886343 10.8034C0.316743 9.57991 0.0140631 8.24914 1.46584e-05 6.89794C-0.00187767 5.98094 0.179467 5.0728 0.533399 4.22685C0.887331 3.3809 1.40672 2.61419 2.06106 1.97175C2.7154 1.32931 3.49151 0.824074 4.34381 0.485722C5.19611 0.14737 6.10742 -0.0172823 7.02423 0.00143406C8.53205 0.00381566 10.0074 0.439594 11.2745 1.25685C11.8313 1.61824 12.3351 2.05538 12.7713 2.5557C13.2107 2.05761 13.7138 1.62084 14.2694 1.25685C15.536 0.439432 17.011 0.00362888 18.5184 0.00143406C19.4352 -0.0172823 20.3465 0.14737 21.1988 0.485722C22.0511 0.824074 22.8272 1.32931 23.4816 1.97175C24.1359 2.61419 24.6553 3.3809 25.0092 4.22685C25.3632 5.0728 25.5445 5.98094 25.5426 6.89794C25.5296 8.25018 25.2274 9.58399 24.6563 10.8098C22.9207 14.654 18.9922 17.8608 15.5248 20.6909L15.512 20.7012C14.5261 21.5045 13.5963 22.2644 12.7726 23L12.7713 22.9898ZM7.02423 2.5557C5.8346 2.54081 4.68718 2.99611 3.83141 3.82261C3.4233 4.22347 3.09995 4.70228 2.88055 5.23059C2.66116 5.75889 2.5502 6.3259 2.55428 6.89794C2.56832 7.88133 2.79182 8.85195 3.20817 9.74339C4.02748 11.402 5.13296 12.9031 6.47379 14.1776C7.73943 15.4547 9.19535 16.691 10.4546 17.7306C10.8033 18.0179 11.1583 18.3078 11.5133 18.5977L11.7368 18.7804C12.0778 19.0588 12.4303 19.3474 12.7713 19.6309L12.7879 19.6156L12.7956 19.6092H12.8032L12.8147 19.6003H12.8275L12.8505 19.5811L12.9029 19.539L12.9118 19.5313L12.9259 19.5211H12.9335L12.945 19.5109L13.793 18.8148L14.0152 18.6322C14.3741 18.3397 14.7292 18.0498 15.0778 17.7625C16.3371 16.7229 17.7943 15.4879 19.0599 14.2044C20.401 12.9306 21.5065 11.4299 22.3255 9.77148C22.7495 8.87238 22.9769 7.89155 22.9896 6.89794C22.9921 6.32754 22.8803 5.76243 22.6607 5.23599C22.4411 4.70954 22.1183 4.23243 21.7112 3.83283C20.8571 3.00259 19.7095 2.54354 18.5184 2.5557C17.7998 2.54959 17.0881 2.69562 16.4299 2.98419C15.7718 3.27276 15.1821 3.69733 14.6998 4.23001L12.7713 6.45222L10.8429 4.23001C10.3605 3.69733 9.77087 3.27276 9.11273 2.98419C8.45459 2.69562 7.74283 2.54959 7.02423 2.5557Z" fill="#F8F8F8"/>
</svg>
