<svg width="26" height="23" viewBox="0 0 26 23" fill="none" xmlns="http://www.w3.org/2000/svg">
<path d="M12.7713 22.9898C11.9476 22.2593 11.0165 21.4994 10.0319 20.691H10.0191C6.55169 17.8557 2.62196 14.6476 0.886343 10.8034C0.316743 9.57991 0.0140631 8.24914 1.46584e-05 6.89794C-0.00187767 5.98094 0.179467 5.0728 0.533399 4.22685C0.887331 3.3809 1.40672 2.61419 2.06106 1.97175C2.7154 1.32931 3.49151 0.824074 4.34381 0.485722C5.19611 0.14737 6.10742 -0.0172823 7.02423 0.00143406C8.53205 0.00381566 10.0074 0.439594 11.2745 1.25685C11.8313 1.61824 12.3351 2.05538 12.7713 2.5557C13.2107 2.05761 13.7138 1.62084 14.2694 1.25685C15.536 0.439432 17.011 0.00362888 18.5184 0.00143406C19.4352 -0.0172823 20.3465 0.14737 21.1988 0.485722C22.0511 0.824074 22.8272 1.32931 23.4816 1.97175C24.1359 2.61419 24.6553 3.3809 25.0092 4.22685C25.3632 5.0728 25.5445 5.98094 25.5426 6.89794C25.5296 8.25018 25.2274 9.58399 24.6563 10.8098C22.9207 14.654 18.9922 17.8608 15.5248 20.691L15.512 20.7012C14.5261 21.5045 13.5963 22.2644 12.7726 23L12.7713 22.9898Z" fill="#F8F8F8"/>
</svg>
