<svg width="20" height="20" viewBox="0 0 20 20" fill="none" xmlns="http://www.w3.org/2000/svg">
<path d="M19.5408 17.3302L14.8656 12.6549C15.9287 11.0765 16.4533 9.10448 16.1724 7.00315C15.6936 3.42892 12.7642 0.520244 9.18647 0.0672841C3.86712 -0.605808 -0.60584 3.86715 0.0672914 9.18651C0.520368 12.7658 3.42943 15.6975 7.00405 16.174C9.10539 16.4548 11.0778 15.9305 12.6558 14.8672L17.3311 19.5424C17.9412 20.1525 18.9305 20.1525 19.5406 19.5424C20.1501 18.9316 20.1501 17.9395 19.5408 17.3302ZM3.08947 8.12412C3.08947 5.36738 5.3322 3.12465 8.08894 3.12465C10.8457 3.12465 13.0884 5.36738 13.0884 8.12412C13.0884 10.8809 10.8457 13.1236 8.08894 13.1236C5.3322 13.1236 3.08947 10.8816 3.08947 8.12412Z" fill="#732825"/>
</svg>
